<?xml version="1.0" standalone="no"?>
<!DOCTYPE svg PUBLIC "-//W3C//DTD SVG 20010904//EN"
 "http://www.w3.org/TR/2001/REC-SVG-20010904/DTD/svg10.dtd">
<svg version="1.0" xmlns="http://www.w3.org/2000/svg"
 width="44.000000pt" height="33.000000pt" viewBox="0 0 44.000000 33.000000"
 preserveAspectRatio="xMidYMid meet">

<g transform="translate(0.000000,33.000000) scale(0.100000,-0.100000)"
fill="#000000" stroke="none">
<path d="M0 195 c0 -74 3 -135 8 -135 4 0 6 58 4 130 l-3 130 130 0 130 0 4
-107 3 -108 2 113 2 112 -140 0 -140 0 0 -135z"/>
<path d="M348 215 l4 -55 40 0 40 0 -4 -50 c-1 -28 0 -50 5 -50 4 0 7 47 7
105 0 58 -3 105 -7 105 -5 0 -6 -22 -5 -50 l4 -50 -36 0 -36 0 0 50 c0 28 -3
50 -7 50 -5 0 -6 -25 -5 -55z"/>
<path d="M82 104 c-32 -22 -30 -69 4 -91 24 -15 29 -15 53 -2 36 20 41 71 9
93 -28 20 -38 20 -66 0z m62 -10 c9 -8 16 -24 16 -34 0 -20 -25 -50 -41 -50
-27 0 -49 22 -49 50 0 44 44 65 74 34z"/>
<path d="M292 104 c-32 -22 -30 -69 4 -91 24 -15 29 -15 53 -2 36 20 41 71 9
93 -28 20 -38 20 -66 0z m59 -4 c39 -21 16 -90 -30 -90 -16 0 -41 30 -41 50 0
20 25 50 41 50 6 0 19 -5 30 -10z"/>
</g>
</svg>
