<?xml version="1.0" standalone="no"?>
<!DOCTYPE svg PUBLIC "-//W3C//DTD SVG 20010904//EN"
 "http://www.w3.org/TR/2001/REC-SVG-20010904/DTD/svg10.dtd">
<svg version="1.0" xmlns="http://www.w3.org/2000/svg"
 width="41.000000pt" height="33.000000pt" viewBox="0 0 41.000000 33.000000"
 preserveAspectRatio="xMidYMid meet">

<g transform="translate(0.000000,33.000000) scale(0.100000,-0.100000)"
fill="#000000" stroke="none">
<path d="M35 299 c-9 -17 -14 -33 -12 -35 2 -3 10 9 17 26 11 27 17 30 56 30
37 0 42 -3 37 -17 -5 -16 -4 -16 8 0 11 14 26 18 63 15 47 -3 50 -5 67 -45
l18 -43 -90 0 c-86 0 -89 1 -79 19 5 11 10 23 10 28 -1 4 -8 -4 -16 -19 -12
-23 -21 -28 -54 -28 -25 0 -40 5 -40 13 0 8 -3 8 -9 -2 -7 -11 15 -42 81 -118
50 -57 96 -107 101 -110 10 -6 44 28 157 157 l48 56 -19 39 c-11 22 -16 31
-13 20 18 -59 20 -56 -26 -53 -40 3 -44 6 -62 46 l-18 44 49 -4 c27 -1 47 0
44 5 -2 4 -71 7 -153 7 l-149 0 -16 -31z m84 -116 c11 -21 20 -34 21 -30 0 4
-7 21 -15 37 l-16 30 90 0 90 0 -30 -66 c-16 -37 -28 -69 -26 -71 2 -2 18 28
35 67 l31 70 41 0 42 0 -33 -37 c-92 -107 -119 -134 -120 -122 0 8 -5 4 -11
-8 -6 -13 -14 -23 -18 -23 -3 0 -17 25 -29 56 -13 30 -25 53 -28 50 -2 -2 3
-18 12 -36 31 -60 10 -48 -63 36 l-73 84 40 0 c37 0 42 -4 60 -37z"/>
</g>
</svg>
