<?xml version="1.0" standalone="no"?>
<!DOCTYPE svg PUBLIC "-//W3C//DTD SVG 20010904//EN"
 "http://www.w3.org/TR/2001/REC-SVG-20010904/DTD/svg10.dtd">
<svg version="1.0" xmlns="http://www.w3.org/2000/svg"
 width="40.000000pt" height="38.000000pt" viewBox="0 0 40.000000 38.000000"
 preserveAspectRatio="xMidYMid meet">

<g transform="translate(0.000000,38.000000) scale(0.100000,-0.100000)"
fill="#000000" stroke="none">
<path d="M168 277 c-92 -87 -99 -97 -129 -175 -17 -46 -29 -85 -27 -87 2 -2
44 8 95 22 89 26 92 27 189 118 l99 93 -20 37 c-21 40 -72 85 -96 85 -8 0 -58
-42 -111 -93z m169 38 c24 -25 43 -51 43 -58 0 -14 -153 -157 -168 -157 -6 0
-13 7 -16 16 -4 11 15 36 61 81 38 36 57 57 43 47 -14 -10 -46 -39 -73 -63
-43 -42 -48 -44 -63 -29 -15 15 -10 22 57 88 l74 73 -78 -68 c-70 -61 -80 -66
-93 -53 -14 14 -9 21 43 71 74 70 106 96 117 97 5 0 29 -20 53 -45z m-183
-171 c27 -31 45 -59 40 -64 -5 -4 -33 -15 -63 -24 -50 -15 -56 -15 -72 0 -16
14 -16 20 -4 52 27 75 35 92 43 92 4 0 30 -25 56 -56z m-100 -99 c3 -9 0 -15
-9 -15 -8 0 -15 7 -15 15 0 19 16 19 24 0z"/>
</g>
</svg>
