<?xml version="1.0" standalone="no"?>
<!DOCTYPE svg PUBLIC "-//W3C//DTD SVG 20010904//EN"
 "http://www.w3.org/TR/2001/REC-SVG-20010904/DTD/svg10.dtd">
<svg version="1.0" xmlns="http://www.w3.org/2000/svg"
 width="41.000000pt" height="41.000000pt" viewBox="0 0 41.000000 41.000000"
 preserveAspectRatio="xMidYMid meet">

<g transform="translate(0.000000,41.000000) scale(0.100000,-0.100000)"
fill="#000000" stroke="none">
<path d="M174 381 c-8 -37 -27 -45 -63 -26 -26 13 -30 13 -44 -3 -14 -16 -15
-22 -2 -57 8 -22 14 -32 15 -22 0 10 -4 27 -10 37 -15 28 13 47 46 31 32 -14
61 0 66 31 4 27 44 38 51 13 4 -12 5 -11 3 2 -1 12 -11 19 -29 21 -23 3 -28
-1 -33 -27z"/>
<path d="M302 355 c-16 -12 -26 -13 -42 -5 -11 6 -20 7 -20 2 0 -17 42 -21 65
-6 20 13 24 13 35 -1 10 -12 10 -21 1 -42 -6 -14 -10 -27 -8 -30 2 -2 10 10
17 27 12 28 11 34 -6 51 -18 17 -21 18 -42 4z"/>
<path d="M172 248 c-7 -7 -12 -17 -12 -22 0 -6 5 -3 11 7 12 20 49 23 67 5 19
-19 14 -45 -10 -62 -18 -13 -19 -16 -6 -16 18 0 38 28 38 54 0 37 -61 61 -88
34z"/>
<path d="M340 250 c0 -6 7 -10 15 -10 8 0 15 2 15 4 0 2 -7 6 -15 10 -8 3 -15
1 -15 -4z"/>
<path d="M28 243 c-18 -5 -27 -63 -9 -63 4 0 6 11 4 24 -4 19 1 26 24 34 28
10 14 14 -19 5z"/>
<path d="M160 191 c0 -10 29 -36 34 -30 1 2 -6 12 -16 22 -10 9 -18 13 -18 8z"/>
<path d="M363 180 c-27 -11 -37 -43 -22 -69 18 -28 -4 -55 -35 -40 -20 10 -21
10 -1 -6 18 -14 21 -14 39 5 18 17 19 23 8 41 -17 27 -8 53 26 66 15 6 23 11
17 11 -5 1 -20 -3 -32 -8z"/>
<path d="M58 162 c20 -22 25 -21 16 2 -3 9 -12 16 -20 16 -11 0 -10 -4 4 -18z"/>
<path d="M59 109 c-9 -18 -7 -25 9 -41 18 -19 22 -19 42 -5 26 18 48 12 60
-17 7 -16 9 -17 9 -4 1 9 -9 24 -21 32 -20 14 -24 14 -46 0 -21 -14 -26 -14
-39 -1 -12 12 -13 19 -4 36 7 11 9 21 7 21 -3 0 -10 -10 -17 -21z"/>
<path d="M250 70 c-11 -11 -20 -26 -20 -34 0 -8 -12 -17 -27 -19 -26 -4 -26
-4 5 -6 26 -1 32 3 32 19 0 10 10 28 22 40 12 11 19 20 15 20 -4 0 -16 -9 -27
-20z"/>
</g>
</svg>
